<svg xmlns="http://www.w3.org/2000/svg" width="32" height="32" viewBox="0 0 32 32">
  <path fill="#2F855A" d="M16 2C8.268 2 2 8.268 2 16s6.268 14 14 14 14-6.268 14-14S23.732 2 16 2zm0 25.5c-6.351 0-11.5-5.149-11.5-11.5S9.649 4.5 16 4.5s11.5 5.149 11.5 11.5-5.149 11.5-11.5 11.5z"/>
  <path fill="#2F855A" d="M16 7c-2.757 0-5 2.243-5 5v7c0 2.757 2.243 5 5 5s5-2.243 5-5v-7c0-2.757-2.243-5-5-5zm2.5 12c0 1.378-1.122 2.5-2.5 2.5s-2.5-1.122-2.5-2.5v-7c0-1.378 1.122-2.5 2.5-2.5s2.5 1.122 2.5 2.5v7z"/>
  <path fill="#2F855A" d="M16 14c-1.104 0-2 .896-2 2s.896 2 2 2 2-.896 2-2-.896-2-2-2z"/>
</svg> 